<svg width="1440" height="721" viewBox="0 0 1440 721" fill="none" xmlns="http://www.w3.org/2000/svg">
<path d="M-19.07 715V490.712H51.346V663.492H130.89L127.63 715H-19.07ZM155.709 715V490.712H229.385V715H155.709ZM349.985 715H265.225V490.712H356.831C392.691 490.712 418.988 495.711 435.723 505.708C452.458 515.488 460.825 529.071 460.825 546.458C460.825 569.061 448.98 584.6 425.291 593.076C455.718 598.944 470.931 616.874 470.931 646.866C470.931 669.903 460.39 687.073 439.309 698.374C418.445 709.458 388.67 715 349.985 715ZM337.923 579.384H363.677C372.37 579.384 379.434 577.428 384.867 573.516C390.3 569.604 393.017 564.388 393.017 557.868C393.017 542.872 382.802 535.374 362.373 535.374H337.923V579.384ZM365.633 669.034C376.5 669.034 384.867 666.861 390.735 662.514C396.603 658.167 399.537 652.082 399.537 644.258C399.537 635.782 396.603 629.262 390.735 624.698C384.867 619.917 376.5 617.526 365.633 617.526H337.597V669.034H365.633ZM666.837 720.216C651.189 720.216 638.257 717.934 628.043 713.37C617.828 708.589 609.678 702.069 603.593 693.81C597.507 685.551 592.943 675.88 589.901 664.796C586.858 653.712 584.793 641.759 583.707 628.936H568.385V715H496.991V490.712H589.249C624.891 490.712 650.537 497.015 666.185 509.62C682.05 522.008 689.983 538.851 689.983 560.15C689.983 572.973 686.505 584.491 679.551 594.706C672.596 604.703 661.403 613.071 645.973 619.808C646.842 624.589 647.603 628.501 648.255 631.544C648.907 634.587 649.885 637.955 651.189 641.65C654.014 649.474 657.491 654.907 661.621 657.95C665.967 660.993 671.835 662.514 679.225 662.514C684.006 662.514 688.787 661.862 693.569 660.558L697.481 714.022C693.134 715.761 688.461 717.173 683.463 718.26C678.681 719.564 673.139 720.216 666.837 720.216ZM568.385 584.274H580.773C596.855 584.274 608.157 582.535 614.677 579.058C621.414 575.363 624.783 569.169 624.783 560.476C624.783 553.087 622.066 547.762 616.633 544.502C611.199 541.025 602.615 539.286 590.879 539.286H568.385V584.274ZM700.669 715L762.609 490.712H868.233L933.107 715H853.237L844.761 671.968H786.733L777.279 715H700.669ZM793.579 631.87H836.937L815.747 533.744L793.579 631.87ZM1120.5 720.216C1104.85 720.216 1091.92 717.934 1081.7 713.37C1071.49 708.589 1063.34 702.069 1057.25 693.81C1051.17 685.551 1046.61 675.88 1043.56 664.796C1040.52 653.712 1038.46 641.759 1037.37 628.936H1022.05V715H950.653V490.712H1042.91C1078.55 490.712 1104.2 497.015 1119.85 509.62C1135.71 522.008 1143.64 538.851 1143.64 560.15C1143.64 572.973 1140.17 584.491 1133.21 594.706C1126.26 604.703 1115.07 613.071 1099.63 619.808C1100.5 624.589 1101.26 628.501 1101.92 631.544C1102.57 634.587 1103.55 637.955 1104.85 641.65C1107.68 649.474 1111.15 654.907 1115.28 657.95C1119.63 660.993 1125.5 662.514 1132.89 662.514C1137.67 662.514 1142.45 661.862 1147.23 660.558L1151.14 714.022C1146.8 715.761 1142.12 717.173 1137.12 718.26C1132.34 719.564 1126.8 720.216 1120.5 720.216ZM1022.05 584.274H1034.43C1050.52 584.274 1061.82 582.535 1068.34 579.058C1075.08 575.363 1078.44 569.169 1078.44 560.476C1078.44 553.087 1075.73 547.762 1070.29 544.502C1064.86 541.025 1056.28 539.286 1044.54 539.286H1022.05V584.274ZM1168.02 658.602V607.746H1255.72V658.602H1168.02ZM1288.75 715V490.712H1446.21V540.264H1367.97V580.036H1439.36V621.112H1367.97V663.818H1446.21V715H1288.75Z" fill="url(#paint0_linear_33_91)"/>
<path d="M-19.07 470V245.712H51.346V418.492H130.89L127.63 470H-19.07ZM155.709 470V245.712H229.385V470H155.709ZM349.985 470H265.225V245.712H356.831C392.691 245.712 418.988 250.711 435.723 260.708C452.458 270.488 460.825 284.071 460.825 301.458C460.825 324.061 448.98 339.6 425.291 348.076C455.718 353.944 470.931 371.874 470.931 401.866C470.931 424.903 460.39 442.073 439.309 453.374C418.445 464.458 388.67 470 349.985 470ZM337.923 334.384H363.677C372.37 334.384 379.434 332.428 384.867 328.516C390.3 324.604 393.017 319.388 393.017 312.868C393.017 297.872 382.802 290.374 362.373 290.374H337.923V334.384ZM365.633 424.034C376.5 424.034 384.867 421.861 390.735 417.514C396.603 413.167 399.537 407.082 399.537 399.258C399.537 390.782 396.603 384.262 390.735 379.698C384.867 374.917 376.5 372.526 365.633 372.526H337.597V424.034H365.633ZM666.837 475.216C651.189 475.216 638.257 472.934 628.043 468.37C617.828 463.589 609.678 457.069 603.593 448.81C597.507 440.551 592.943 430.88 589.901 419.796C586.858 408.712 584.793 396.759 583.707 383.936H568.385V470H496.991V245.712H589.249C624.891 245.712 650.537 252.015 666.185 264.62C682.05 277.008 689.983 293.851 689.983 315.15C689.983 327.973 686.505 339.491 679.551 349.706C672.596 359.703 661.403 368.071 645.973 374.808C646.842 379.589 647.603 383.501 648.255 386.544C648.907 389.587 649.885 392.955 651.189 396.65C654.014 404.474 657.491 409.907 661.621 412.95C665.967 415.993 671.835 417.514 679.225 417.514C684.006 417.514 688.787 416.862 693.569 415.558L697.481 469.022C693.134 470.761 688.461 472.173 683.463 473.26C678.681 474.564 673.139 475.216 666.837 475.216ZM568.385 339.274H580.773C596.855 339.274 608.157 337.535 614.677 334.058C621.414 330.363 624.783 324.169 624.783 315.476C624.783 308.087 622.066 302.762 616.633 299.502C611.199 296.025 602.615 294.286 590.879 294.286H568.385V339.274ZM700.669 470L762.609 245.712H868.233L933.107 470H853.237L844.761 426.968H786.733L777.279 470H700.669ZM793.579 386.87H836.937L815.747 288.744L793.579 386.87ZM1120.5 475.216C1104.85 475.216 1091.92 472.934 1081.7 468.37C1071.49 463.589 1063.34 457.069 1057.25 448.81C1051.17 440.551 1046.61 430.88 1043.56 419.796C1040.52 408.712 1038.46 396.759 1037.37 383.936H1022.05V470H950.653V245.712H1042.91C1078.55 245.712 1104.2 252.015 1119.85 264.62C1135.71 277.008 1143.64 293.851 1143.64 315.15C1143.64 327.973 1140.17 339.491 1133.21 349.706C1126.26 359.703 1115.07 368.071 1099.63 374.808C1100.5 379.589 1101.26 383.501 1101.92 386.544C1102.57 389.587 1103.55 392.955 1104.85 396.65C1107.68 404.474 1111.15 409.907 1115.28 412.95C1119.63 415.993 1125.5 417.514 1132.89 417.514C1137.67 417.514 1142.45 416.862 1147.23 415.558L1151.14 469.022C1146.8 470.761 1142.12 472.173 1137.12 473.26C1132.34 474.564 1126.8 475.216 1120.5 475.216ZM1022.05 339.274H1034.43C1050.52 339.274 1061.82 337.535 1068.34 334.058C1075.08 330.363 1078.44 324.169 1078.44 315.476C1078.44 308.087 1075.73 302.762 1070.29 299.502C1064.86 296.025 1056.28 294.286 1044.54 294.286H1022.05V339.274ZM1168.02 413.602V362.746H1255.72V413.602H1168.02ZM1288.75 470V245.712H1446.21V295.264H1367.97V335.036H1439.36V376.112H1367.97V418.818H1446.21V470H1288.75Z" fill="#EAB139" fill-opacity="0.5"/>
<path d="M-19.07 225V0.711992H51.346V173.492H130.89L127.63 225H-19.07ZM155.709 225V0.711992H229.385V225H155.709ZM349.985 225H265.225V0.711992H356.831C392.691 0.711992 418.988 5.71066 435.723 15.708C452.458 25.488 460.825 39.0713 460.825 56.458C460.825 79.0607 448.98 94.6 425.291 103.076C455.718 108.944 470.931 126.874 470.931 156.866C470.931 179.903 460.39 197.073 439.309 208.374C418.445 219.458 388.67 225 349.985 225ZM337.923 89.384H363.677C372.37 89.384 379.434 87.428 384.867 83.516C390.3 79.604 393.017 74.388 393.017 67.868C393.017 52.872 382.802 45.374 362.373 45.374H337.923V89.384ZM365.633 179.034C376.5 179.034 384.867 176.861 390.735 172.514C396.603 168.167 399.537 162.082 399.537 154.258C399.537 145.782 396.603 139.262 390.735 134.698C384.867 129.917 376.5 127.526 365.633 127.526H337.597V179.034H365.633ZM666.837 230.216C651.189 230.216 638.257 227.934 628.043 223.37C617.828 218.589 609.678 212.069 603.593 203.81C597.507 195.551 592.943 185.88 589.901 174.796C586.858 163.712 584.793 151.759 583.707 138.936H568.385V225H496.991V0.711992H589.249C624.891 0.711992 650.537 7.01466 666.185 19.62C682.05 32.008 689.983 48.8513 689.983 70.15C689.983 82.9727 686.505 94.4913 679.551 104.706C672.596 114.703 661.403 123.071 645.973 129.808C646.842 134.589 647.603 138.501 648.255 141.544C648.907 144.587 649.885 147.955 651.189 151.65C654.014 159.474 657.491 164.907 661.621 167.95C665.967 170.993 671.835 172.514 679.225 172.514C684.006 172.514 688.787 171.862 693.569 170.558L697.481 224.022C693.134 225.761 688.461 227.173 683.463 228.26C678.681 229.564 673.139 230.216 666.837 230.216ZM568.385 94.274H580.773C596.855 94.274 608.157 92.5353 614.677 89.058C621.414 85.3633 624.783 79.1693 624.783 70.476C624.783 63.0867 622.066 57.762 616.633 54.502C611.199 51.0247 602.615 49.286 590.879 49.286H568.385V94.274ZM700.669 225L762.609 0.711992H868.233L933.107 225H853.237L844.761 181.968H786.733L777.279 225H700.669ZM793.579 141.87H836.937L815.747 43.744L793.579 141.87ZM1120.5 230.216C1104.85 230.216 1091.92 227.934 1081.7 223.37C1071.49 218.589 1063.34 212.069 1057.25 203.81C1051.17 195.551 1046.61 185.88 1043.56 174.796C1040.52 163.712 1038.46 151.759 1037.37 138.936H1022.05V225H950.653V0.711992H1042.91C1078.55 0.711992 1104.2 7.01466 1119.85 19.62C1135.71 32.008 1143.64 48.8513 1143.64 70.15C1143.64 82.9727 1140.17 94.4913 1133.21 104.706C1126.26 114.703 1115.07 123.071 1099.63 129.808C1100.5 134.589 1101.26 138.501 1101.92 141.544C1102.57 144.587 1103.55 147.955 1104.85 151.65C1107.68 159.474 1111.15 164.907 1115.28 167.95C1119.63 170.993 1125.5 172.514 1132.89 172.514C1137.67 172.514 1142.45 171.862 1147.23 170.558L1151.14 224.022C1146.8 225.761 1142.12 227.173 1137.12 228.26C1132.34 229.564 1126.8 230.216 1120.5 230.216ZM1022.05 94.274H1034.43C1050.52 94.274 1061.82 92.5353 1068.34 89.058C1075.08 85.3633 1078.44 79.1693 1078.44 70.476C1078.44 63.0867 1075.73 57.762 1070.29 54.502C1064.86 51.0247 1056.28 49.286 1044.54 49.286H1022.05V94.274ZM1168.02 168.602V117.746H1255.72V168.602H1168.02ZM1288.75 225V0.711992H1446.21V50.264H1367.97V90.036H1439.36V131.112H1367.97V173.818H1446.21V225H1288.75Z" fill="#EAB139" fill-opacity="0.25"/>
<defs>
<linearGradient id="paint0_linear_33_91" x1="711" y1="461" x2="711" y2="783" gradientUnits="userSpaceOnUse">
<stop stop-color="#EAB139"/>
<stop offset="0.75" stop-color="#041224"/>
</linearGradient>
</defs>
</svg>
